{"title":"The Hobbit The Desolation of Smaug 2013 Russian CamRip","uid":9384603,"size":2245024841,"categoryP":"video","categoryS":"movies","magnet":"?xt=urn:btih:7d43e2a2c6776ebb080bd3f98feb881d7f86357c&amp;dn=The+Hobbit+The+Desolation+of+Smaug+2013+Russian+CamRip&amp;tr=udp%3A%2F%2Ftracker.openbittorrent.com%3A80&amp;tr=udp%3A%2F%2Fopen.demonii.com%3A1337&amp;tr=udp%3A%2F%2Ftracker.coppersurfer.tk%3A6969&amp;tr=udp%3A%2F%2Fexodus.desync.com%3A6969","seeders":1,"leechers":0,"uploader":"Satafakap","files":7,"time":1387781625,"description":"General\n\nComplete name        : The.Hobbit.The.Desolation.of.Smaug.2013.Russian.CamRip.\n                       XviD.AC3.avi  \nFormat               : AVI\nFormat/Info          : Audio Video Interleave\nFormat profile       : OpenDML\nFile size            : 2.06 GiB\nDuration             : 2h 28mn\nOverall bit rate     : 1 980 Kbps\nWriting application  : VirtualDubMod 1.5.10.3 | www.virtualdub-fr.org || (build \n                       2550/release)\nWriting library      : VirtualDubMod build 2550/release\nSample               : Yes\n\nVideo\n\nID                                       : 0\nFormat                                   : MPEG-4 Visual\nFormat profile                           : Advanced Simple@L5\nFormat settings, BVOP                    : 2\nFormat settings, QPel                    : No\nFormat settings, GMC                     : No warppoints\nFormat settings, Matrix                  : Default (MPEG)\nCodec ID                                 : XVID\nCodec ID/Hint                            : XviD\nDuration                                 : 2h 28mn\nBit rate                                 : 1 837 Kbps\nWidth                                    : 720 pixels\nHeight                                   : 352 pixels\nDisplay aspect ratio                     : 2.045\nFrame rate                               : 29.970 fps\nColor space                              : YUV\nChroma subsampling                       : 4:2:0\nBit depth                                : 8 bits\nScan type                                : Progressive\nCompression mode                         : Lossy\nBits/(Pixel*Frame)                       : 0.242\nStream size                              : 1.91 GiB (93%)\nWriting library                          : XviD 73\n\nAudio\n\nID                                       : 1\nFormat                                   : AC-3\nFormat/Info                              : Audio Coding 3\nMode extension                           : CM (complete main)\nFormat settings, Endianness              : Big\nCodec ID                                 : 2000\nDuration                                 : 2h 28mn\nBit rate mode                            : Constant\nBit rate                                 : 128 Kbps\nChannel(s)                               : 2 channels\nChannel positions                        : Front: L R\nSampling rate                            : 48.0 KHz\nBit depth                                : 16 bits\nCompression mode                         : Lossy\nStream size                              : 136 MiB (6%)\nAlignment                                : Split accross interleaves\nInterleave, duration                     : 33 ms (1.00 video frame)\nInterleave, preload duration             : 500 ms\n\nScreenshots:\n &lt;a href=&quot;\nhttp://bayimg.com/kaEnOaaFp&quot; rel=&quot;nofollow&quot; target=&quot;_NEW&quot;&gt;\nhttp://bayimg.com/kaEnOaaFp&lt;/a&gt;\n &lt;a href=&quot;\nhttp://bayimg.com/laeNAaAfp&quot; rel=&quot;nofollow&quot; target=&quot;_NEW&quot;&gt;\nhttp://bayimg.com/laeNAaAfp&lt;/a&gt;\n &lt;a href=&quot;\nhttp://bayimg.com/lAENBaAfP&quot; rel=&quot;nofollow&quot; target=&quot;_NEW&quot;&gt;\nhttp://bayimg.com/lAENBaAfP&lt;/a&gt;\n &lt;a href=&quot;\nhttp://bayimg.com/laENCaafp&quot; rel=&quot;nofollow&quot; target=&quot;_NEW&quot;&gt;\nhttp://bayimg.com/laENCaafp&lt;/a&gt;\n &lt;a href=&quot;\nhttp://bayimg.com/lAeNeAAfp&quot; rel=&quot;nofollow&quot; target=&quot;_NEW&quot;&gt;\nhttp://bayimg.com/lAeNeAAfp&lt;/a&gt;","torrent":{"xt":"urn:btih:7d43e2a2c6776ebb080bd3f98feb881d7f86357c","amp;dn":"The+Hobbit+The+Desolation+of+Smaug+2013+Russian+CamRip","amp;tr":["udp%3A%2F%2Ftracker.openbittorrent.com%3A80","udp%3A%2F%2Fopen.demonii.com%3A1337","udp%3A%2F%2Ftracker.coppersurfer.tk%3A6969","udp%3A%2F%2Fexodus.desync.com%3A6969"],"infoHash":"7d43e2a2c6776ebb080bd3f98feb881d7f86357c","infoHashBuffer":{"type":"Buffer","data":[125,67,226,162,198,119,110,187,8,11,211,249,143,235,136,29,127,134,53,124]},"announce":[],"urlList":[]}}